<svg width="512" height="512" viewBox="0 0 512 512" fill="none" xmlns="http://www.w3.org/2000/svg">
<rect width="512" height="512" fill="#121100"/>
<path d="M116.764 319C117.111 317.551 117.401 315.813 117.633 313.785C117.923 311.699 118.067 309.555 118.067 307.354C118.067 305.326 117.923 303.355 117.633 301.443C117.343 299.473 117.053 297.793 116.764 296.402C119.371 296.402 121.66 296.2 123.63 295.794C125.6 295.388 127.251 294.722 128.584 293.795C129.917 292.81 130.902 291.506 131.539 289.884C132.234 288.203 132.582 286.118 132.582 283.626C132.582 278.759 132.437 274.587 132.147 271.11C131.916 267.634 131.539 264.766 131.018 262.506C130.554 260.246 129.946 258.537 129.192 257.378C128.439 256.161 127.57 255.408 126.585 255.118C127.628 254.771 128.526 254.22 129.279 253.467C130.033 252.714 130.641 251.439 131.104 249.643C131.626 247.788 132.003 245.268 132.234 242.081C132.466 238.836 132.582 234.549 132.582 229.218C132.582 226.726 132.234 224.669 131.539 223.047C130.902 221.367 129.917 220.063 128.584 219.136C127.251 218.151 125.6 217.455 123.63 217.05C121.66 216.644 119.371 216.441 116.764 216.441C117.053 215.051 117.343 213.399 117.633 211.487C117.923 209.517 118.067 207.518 118.067 205.49C118.067 203.288 117.923 201.174 117.633 199.146C117.401 197.06 117.111 195.292 116.764 193.844C117.517 194.133 118.994 194.423 121.196 194.713C123.398 195.003 125.977 195.263 128.932 195.495C131.945 195.669 135.189 195.843 138.666 196.017C142.143 196.19 145.561 196.364 148.922 196.538C152.283 196.654 155.411 196.741 158.309 196.799C161.264 196.857 163.697 196.886 165.609 196.886C171.114 196.886 176.676 196.857 182.297 196.799C187.975 196.683 193.248 196.509 198.115 196.277C203.04 196.046 207.328 195.727 210.979 195.321C214.629 194.916 217.207 194.423 218.714 193.844C218.772 195.003 219.177 196.248 219.931 197.581C220.742 198.856 221.756 200.16 222.973 201.492C224.247 202.767 225.667 204.013 227.231 205.229C228.796 206.446 230.36 207.518 231.925 208.445C233.547 209.372 235.112 210.126 236.618 210.705C238.125 211.285 239.457 211.603 240.616 211.661C240.211 212.472 239.834 213.66 239.486 215.225C239.197 216.789 238.936 218.527 238.704 220.439C238.472 222.352 238.299 224.38 238.183 226.523C238.067 228.609 238.009 230.608 238.009 232.521C238.009 234.722 238.038 236.895 238.096 239.039C238.212 241.125 238.356 243.095 238.53 244.949C238.704 246.803 238.965 248.513 239.312 250.077C239.66 251.584 240.095 252.829 240.616 253.814C238.588 254.162 236.473 254.713 234.271 255.466C232.07 256.219 229.897 257.146 227.753 258.247C225.609 259.29 223.581 260.478 221.669 261.811C219.757 263.143 218.105 264.563 216.715 266.069C217.584 267.286 218.598 268.416 219.757 269.459C220.974 270.502 222.219 271.4 223.494 272.153C224.769 272.849 226.073 273.399 227.405 273.805C228.738 274.21 229.984 274.413 231.143 274.413C231.143 277.89 231.664 280.99 232.707 283.713C233.808 286.436 235.343 288.754 237.313 290.666C239.284 292.52 241.688 293.94 244.527 294.925C247.367 295.91 250.582 296.402 254.175 296.402C253.653 297.793 253.306 299.473 253.132 301.443C252.958 303.355 252.871 305.326 252.871 307.354C252.871 309.555 252.987 311.699 253.219 313.785C253.451 315.813 253.827 317.551 254.349 319C253.769 318.768 252.639 318.536 250.959 318.305C249.279 318.015 247.338 317.783 245.136 317.609C242.992 317.378 240.761 317.204 238.443 317.088C236.126 316.914 234.04 316.827 232.186 316.827C229.984 316.827 227.55 316.856 224.885 316.914C222.219 316.972 219.612 317.088 217.062 317.262C214.513 317.378 212.166 317.58 210.022 317.87C207.937 318.16 206.343 318.536 205.242 319C205.358 317.841 205.445 316.711 205.503 315.61C205.561 314.451 205.59 313.322 205.59 312.221C205.59 309.845 205.416 307.585 205.068 305.441C204.721 303.24 204.141 301.241 203.33 299.444C202.519 297.59 201.476 295.997 200.201 294.664C198.926 293.273 197.362 292.201 195.508 291.448C196.029 290.463 196.493 289.131 196.898 287.45C197.304 285.77 197.507 283.423 197.507 280.41C197.507 278.788 197.246 277.252 196.725 275.804C196.203 274.355 195.276 273.109 193.943 272.066C192.669 271.023 190.959 270.212 188.815 269.633C186.672 268.995 183.977 268.677 180.732 268.677C179.342 268.677 177.661 268.735 175.691 268.851C173.721 268.966 171.635 269.169 169.434 269.459C168.796 271.023 168.304 272.907 167.956 275.108C167.608 277.252 167.435 280.091 167.435 283.626C167.435 286.118 167.695 288.203 168.217 289.884C168.796 291.506 169.723 292.81 170.998 293.795C172.273 294.722 173.895 295.388 175.865 295.794C177.893 296.2 180.356 296.402 183.253 296.402C182.963 297.793 182.674 299.473 182.384 301.443C182.094 303.355 181.949 305.326 181.949 307.354C181.949 309.555 182.065 311.699 182.297 313.785C182.587 315.813 182.905 317.551 183.253 319C181.573 318.652 179.458 318.363 176.908 318.131C174.359 317.841 171.577 317.609 168.564 317.436C165.551 317.204 162.451 317.059 159.265 317.001C156.078 316.885 153.007 316.827 150.052 316.827C147.097 316.827 143.997 316.885 140.752 317.001C137.565 317.059 134.465 317.204 131.452 317.436C128.439 317.609 125.629 317.841 123.021 318.131C120.472 318.363 118.386 318.652 116.764 319ZM167.608 249.643C170.042 250.338 172.591 250.859 175.257 251.207C177.98 251.497 180.935 251.642 184.122 251.642C187.251 251.642 190.032 251.178 192.466 250.251C194.957 249.266 197.043 247.933 198.724 246.253C200.404 244.573 201.679 242.603 202.548 240.343C203.417 238.025 203.852 235.562 203.852 232.955C203.852 230.521 203.504 228.146 202.809 225.828C202.171 223.51 201.099 221.482 199.593 219.744C198.144 217.948 196.203 216.528 193.77 215.485C191.394 214.384 188.468 213.834 184.991 213.834C181.978 213.834 178.907 214.037 175.778 214.442C172.707 214.848 169.955 215.543 167.521 216.528C167.232 218.382 167.029 220.439 166.913 222.699C166.797 224.901 166.739 227.219 166.739 229.652C166.739 233.245 166.826 236.808 167 240.343C167.174 243.819 167.377 246.919 167.608 249.643ZM264.865 295.707C265.966 294.201 266.98 291.13 267.907 286.494C268.834 281.801 269.298 275.427 269.298 267.373C269.298 263.723 268.805 260.941 267.82 259.029C266.835 257.059 265.416 255.756 263.562 255.118C264.604 254.828 265.503 254.162 266.256 253.119C267.009 252.076 267.646 250.801 268.168 249.295C268.689 247.788 269.066 246.137 269.298 244.341C269.53 242.487 269.646 240.604 269.646 238.691C269.646 233.708 269.211 229.305 268.342 225.48C267.531 221.598 266.372 218.817 264.865 217.137H265.561C267.531 217.137 269.732 216.702 272.166 215.833C274.658 214.964 277.178 213.834 279.728 212.443C282.277 210.995 284.769 209.401 287.202 207.663C289.636 205.867 291.809 204.042 293.721 202.188C295.691 200.333 297.284 198.537 298.501 196.799C299.776 195.003 300.471 193.438 300.587 192.105C301.514 192.627 302.673 193.177 304.063 193.757C305.512 194.278 307.279 194.8 309.365 195.321C311.451 195.785 313.914 196.161 316.753 196.451C319.65 196.741 323.069 196.886 327.009 196.886C328.921 196.886 330.891 196.77 332.919 196.538C335.005 196.306 337.004 195.988 338.916 195.582C340.886 195.118 342.711 194.597 344.392 194.018C346.072 193.438 347.463 192.801 348.563 192.105C349.259 194.307 350.244 196.248 351.519 197.929C352.851 199.551 354.358 200.884 356.038 201.927C357.429 200.652 358.443 199.29 359.08 197.842C359.717 196.335 360.181 195.003 360.471 193.844C360.992 194.133 361.977 194.394 363.426 194.626C364.874 194.8 366.526 194.974 368.38 195.147C370.292 195.263 372.262 195.379 374.29 195.495C376.376 195.553 378.288 195.582 380.026 195.582C384.43 195.582 388.718 195.003 392.89 193.844C392.774 194.307 392.571 195.205 392.281 196.538C392.049 197.871 391.818 199.406 391.586 201.145C391.354 202.883 391.151 204.737 390.978 206.707C390.804 208.677 390.717 210.56 390.717 212.356C390.717 216.065 390.804 219.57 390.978 222.873C391.151 226.176 391.325 229.16 391.499 231.825C391.731 234.491 391.963 236.779 392.194 238.691C392.484 240.604 392.716 242.023 392.89 242.95C390.108 242.487 387.414 242.168 384.807 241.994C382.199 241.762 379.65 241.646 377.158 241.646C375.42 241.646 373.508 241.675 371.422 241.733C369.394 241.791 367.366 241.878 365.338 241.994C363.31 242.052 361.369 242.168 359.515 242.342C357.66 242.516 356.038 242.718 354.647 242.95C354.647 239.01 354.271 235.273 353.518 231.738C352.764 228.204 351.548 225.133 349.867 222.525C348.245 219.86 346.101 217.745 343.436 216.181C340.828 214.616 337.67 213.834 333.962 213.834C331.934 213.834 329.906 214.008 327.878 214.355C325.85 214.703 323.909 215.427 322.055 216.528C320.258 217.571 318.549 219.078 316.927 221.048C315.362 223.018 314.001 225.654 312.842 228.957C311.741 232.202 310.843 236.2 310.147 240.951C309.51 245.702 309.191 251.381 309.191 257.986C309.191 266.388 309.916 273.254 311.364 278.585C312.813 283.858 314.754 288.03 317.188 291.101C319.621 294.114 322.431 296.2 325.618 297.358C328.805 298.459 332.166 299.01 335.7 299.01C339.177 299.01 342.016 298.662 344.218 297.967C346.478 297.271 348.245 296.373 349.52 295.272C350.794 294.172 351.663 292.926 352.127 291.535C352.59 290.087 352.822 288.609 352.822 287.103C352.822 285.828 352.648 284.756 352.301 283.887C352.011 282.96 351.403 282.206 350.476 281.627C349.606 281.048 348.361 280.613 346.738 280.323C345.116 280.034 343.03 279.889 340.48 279.889C340.944 278.266 341.263 276.586 341.437 274.848C341.668 273.109 341.784 270.937 341.784 268.329C341.784 266.301 341.639 264.534 341.35 263.027C341.118 261.463 340.828 259.985 340.48 258.595C343.609 259.406 346.999 259.985 350.649 260.333C354.3 260.623 357.863 260.768 361.34 260.768C364.295 260.768 367.453 260.739 370.813 260.681C374.232 260.565 377.535 260.42 380.722 260.246C383.966 260.014 386.951 259.783 389.674 259.551C392.397 259.261 394.541 258.942 396.105 258.595C395.005 261.376 394.077 264.447 393.324 267.808C392.629 271.11 392.049 274.529 391.586 278.063C391.18 281.598 390.862 285.132 390.63 288.667C390.456 292.201 390.369 295.591 390.369 298.836C390.369 303.529 390.514 307.672 390.804 311.265C391.151 314.857 391.557 317.436 392.021 319C390.572 319 388.776 318.681 386.632 318.044C384.546 317.349 382.344 316.479 380.026 315.437C377.767 314.394 375.536 313.206 373.334 311.873C371.19 310.54 369.336 309.208 367.771 307.875C366.265 307.933 364.585 308.454 362.73 309.439C360.876 310.367 359.138 311.496 357.516 312.829C355.893 314.162 354.532 315.552 353.431 317.001C352.388 318.45 351.866 319.695 351.866 320.738C350.881 320.217 349.462 319.724 347.607 319.261C345.753 318.797 343.725 318.392 341.523 318.044C339.38 317.638 337.236 317.349 335.092 317.175C332.948 316.943 331.123 316.827 329.616 316.827C321.736 316.827 315.304 317.233 310.321 318.044C305.396 318.797 301.978 319.695 300.065 320.738C299.602 318.942 298.704 317.117 297.371 315.263C296.038 313.351 294.416 311.525 292.504 309.787C290.592 307.991 288.477 306.311 286.159 304.746C283.841 303.124 281.437 301.675 278.945 300.4C276.512 299.126 274.078 298.083 271.645 297.271C269.211 296.46 266.951 295.939 264.865 295.707Z" fill="#F0D888"/>
</svg>
